<mxfile host="app.diagrams.net" modified="2023-06-03T17:11:24.509Z" agent="Mozilla/5.0 (Windows NT 10.0; Win64; x64) AppleWebKit/537.36 (KHTML, like Gecko) Chrome/112.0.0.0 Safari/537.36 OPR/98.0.0.0" etag="5TqrvpWw0QJDXtE5H4Rg" version="21.3.7" type="google">
  <diagram name="Page-1" id="0783ab3e-0a74-02c8-0abd-f7b4e66b4bec">
    <mxGraphModel grid="1" page="1" gridSize="10" guides="1" tooltips="1" connect="1" arrows="1" fold="1" pageScale="1" pageWidth="850" pageHeight="1100" background="none" math="0" shadow="0">
      <root>
        <mxCell id="0" />
        <mxCell id="1" parent="0" />
        <mxCell id="WWoe3NSiGDlyAQW46fR_-2" style="edgeStyle=orthogonalEdgeStyle;rounded=0;orthogonalLoop=1;jettySize=auto;html=1;exitX=0.5;exitY=1;exitDx=0;exitDy=0;" edge="1" parent="1" source="60571a20871a0731-4" target="WWoe3NSiGDlyAQW46fR_-1">
          <mxGeometry relative="1" as="geometry" />
        </mxCell>
        <mxCell id="60571a20871a0731-4" value="" style="ellipse;whiteSpace=wrap;html=1;rounded=0;shadow=0;comic=0;labelBackgroundColor=none;strokeWidth=1;fillColor=#000000;fontFamily=Verdana;fontSize=12;align=center;" vertex="1" parent="1">
          <mxGeometry x="400" y="60" width="40" height="40" as="geometry" />
        </mxCell>
        <mxCell id="WWoe3NSiGDlyAQW46fR_-5" style="edgeStyle=orthogonalEdgeStyle;rounded=0;orthogonalLoop=1;jettySize=auto;html=1;exitX=0.5;exitY=1;exitDx=0;exitDy=0;entryX=0.5;entryY=0;entryDx=0;entryDy=0;" edge="1" parent="1" source="WWoe3NSiGDlyAQW46fR_-1" target="WWoe3NSiGDlyAQW46fR_-4">
          <mxGeometry relative="1" as="geometry" />
        </mxCell>
        <mxCell id="WWoe3NSiGDlyAQW46fR_-1" value="Visualizar Agenda" style="rounded=1;whiteSpace=wrap;html=1;" vertex="1" parent="1">
          <mxGeometry x="375" y="140" width="90" height="30" as="geometry" />
        </mxCell>
        <mxCell id="WWoe3NSiGDlyAQW46fR_-7" style="edgeStyle=orthogonalEdgeStyle;rounded=0;orthogonalLoop=1;jettySize=auto;html=1;exitX=0.5;exitY=1;exitDx=0;exitDy=0;entryX=0.5;entryY=0;entryDx=0;entryDy=0;" edge="1" parent="1" source="WWoe3NSiGDlyAQW46fR_-4">
          <mxGeometry relative="1" as="geometry">
            <mxPoint x="420" y="250" as="targetPoint" />
          </mxGeometry>
        </mxCell>
        <mxCell id="WWoe3NSiGDlyAQW46fR_-4" value="Escolher Data Disponivel" style="rounded=1;whiteSpace=wrap;html=1;" vertex="1" parent="1">
          <mxGeometry x="375" y="200" width="90" height="30" as="geometry" />
        </mxCell>
        <mxCell id="WWoe3NSiGDlyAQW46fR_-10" style="edgeStyle=orthogonalEdgeStyle;rounded=0;orthogonalLoop=1;jettySize=auto;html=1;exitX=0.5;exitY=1;exitDx=0;exitDy=0;entryX=0.5;entryY=0;entryDx=0;entryDy=0;" edge="1" parent="1" source="WWoe3NSiGDlyAQW46fR_-8" target="WWoe3NSiGDlyAQW46fR_-9">
          <mxGeometry relative="1" as="geometry" />
        </mxCell>
        <mxCell id="WWoe3NSiGDlyAQW46fR_-8" value="Confirmar Agendamento" style="rounded=1;whiteSpace=wrap;html=1;" vertex="1" parent="1">
          <mxGeometry x="370" y="410" width="100" height="30" as="geometry" />
        </mxCell>
        <mxCell id="WWoe3NSiGDlyAQW46fR_-9" value="" style="ellipse;html=1;shape=endState;fillColor=#000000;" vertex="1" parent="1">
          <mxGeometry x="405" y="460" width="30" height="30" as="geometry" />
        </mxCell>
        <mxCell id="HGw14Q_wIu1SUI1utftF-6" value="" style="edgeStyle=orthogonalEdgeStyle;rounded=0;orthogonalLoop=1;jettySize=auto;html=1;" edge="1" parent="1" source="HGw14Q_wIu1SUI1utftF-1" target="HGw14Q_wIu1SUI1utftF-5">
          <mxGeometry relative="1" as="geometry" />
        </mxCell>
        <mxCell id="HGw14Q_wIu1SUI1utftF-1" value="Verificar Disponibilidade" style="rounded=1;whiteSpace=wrap;html=1;" vertex="1" parent="1">
          <mxGeometry x="375" y="250" width="90" height="30" as="geometry" />
        </mxCell>
        <mxCell id="HGw14Q_wIu1SUI1utftF-8" style="edgeStyle=orthogonalEdgeStyle;rounded=0;orthogonalLoop=1;jettySize=auto;html=1;exitX=0.493;exitY=0.87;exitDx=0;exitDy=0;exitPerimeter=0;" edge="1" parent="1" source="HGw14Q_wIu1SUI1utftF-5" target="WWoe3NSiGDlyAQW46fR_-8">
          <mxGeometry relative="1" as="geometry" />
        </mxCell>
        <mxCell id="HGw14Q_wIu1SUI1utftF-9" style="edgeStyle=orthogonalEdgeStyle;rounded=0;orthogonalLoop=1;jettySize=auto;html=1;exitX=0.922;exitY=0.508;exitDx=0;exitDy=0;entryX=1;entryY=0.5;entryDx=0;entryDy=0;exitPerimeter=0;" edge="1" parent="1" source="HGw14Q_wIu1SUI1utftF-5" target="WWoe3NSiGDlyAQW46fR_-1">
          <mxGeometry relative="1" as="geometry">
            <Array as="points">
              <mxPoint x="530" y="335" />
              <mxPoint x="530" y="155" />
            </Array>
          </mxGeometry>
        </mxCell>
        <mxCell id="HGw14Q_wIu1SUI1utftF-5" value="" style="rhombus;whiteSpace=wrap;html=1;rounded=1;" vertex="1" parent="1">
          <mxGeometry x="395" y="322.5" width="50" height="25" as="geometry" />
        </mxCell>
        <mxCell id="HGw14Q_wIu1SUI1utftF-10" value="&lt;font style=&quot;font-size: 7px;&quot;&gt;[Data Indisponível]&lt;/font&gt;" style="text;html=1;align=center;verticalAlign=middle;resizable=0;points=[];autosize=1;strokeColor=none;fillColor=none;rotation=90;" vertex="1" parent="1">
          <mxGeometry x="500" y="210" width="80" height="30" as="geometry" />
        </mxCell>
        <mxCell id="HGw14Q_wIu1SUI1utftF-11" value="&lt;font style=&quot;font-size: 5px;&quot;&gt;[Data Disponível]&lt;/font&gt;" style="text;html=1;align=center;verticalAlign=middle;resizable=0;points=[];autosize=1;strokeColor=none;fillColor=none;rotation=90;" vertex="1" parent="1">
          <mxGeometry x="395" y="360" width="60" height="30" as="geometry" />
        </mxCell>
      </root>
    </mxGraphModel>
  </diagram>
</mxfile>
